<svg id="Laag_1" data-name="Laag 1" xmlns="http://www.w3.org/2000/svg" viewBox="0 0 181.8 181.8"><defs><style>.cls-1,.cls-2,.cls-3{fill:none;stroke:#1d1d1b;stroke-linejoin:bevel;}.cls-1{stroke-width:1.75px;}.cls-2{stroke-width:2px;}</style></defs><title>faviconicon</title><polygon class="cls-1" points="16.43 47.91 16.43 133.89 90.9 176.89 165.37 133.89 165.37 47.91 90.9 4.91 16.43 47.91"/><polygon class="cls-1" points="90.9 4.91 16.43 133.89 29.79 133.89 165.37 133.89 90.9 4.91"/><polyline class="cls-1" points="109.21 90.9 90.89 72.49 152 133.89 90.91 176.89 29.8 133.89 90.91 72.49 152 133.89 90.9 100.81 29.8 133.89"/><path class="cls-2" d="M158.77,199.42" transform="translate(-86.19 -108.52)"/><path class="cls-2" d="M113.13,241.51" transform="translate(-86.19 -108.52)"/><path class="cls-2" d="M195.39,199.42" transform="translate(-86.19 -108.52)"/><polyline class="cls-1" points="16.43 47.91 90.9 47.91 165.37 47.91"/><rect class="cls-3" x="0.5" y="0.5" width="180.8" height="180.8"/></svg>